<svg width="18" height="18" viewBox="0 0 18 18" fill="none" xmlns="http://www.w3.org/2000/svg">
<path d="M9.7473 1.28998L9.9422 2.38L10.0722 3.15002L10.852 3.40997C11.1769 3.53997 11.5668 3.65999 11.8917 3.85999L12.6065 4.23999L13.2563 3.78998L14.1661 3.15002L15.0758 4.04999L14.426 4.95001L13.9711 5.59003L14.296 6.29999C14.491 6.61999 14.6209 6.94002 14.6859 7.33002L14.9458 8.09998L15.7256 8.22998L16.8953 8.35999V9.64001L15.7906 9.84003L14.9458 9.96002L14.6859 10.74C14.556 11.06 14.426 11.38 14.296 11.76L13.9061 12.47L14.361 13.11L15.0108 14.01L14.1011 14.91L13.1913 14.27L12.5415 13.82L11.8267 14.14C11.5018 14.34 11.1769 14.46 10.787 14.53L10.0722 14.79L9.9422 15.56L9.7473 16.71H8.4477L8.2527 15.62L8.1227 14.79L7.343 14.53C7.0181 14.4 6.6931 14.27 6.3682 14.14L5.6534 13.76L5.0036 14.21L4.0289 14.85L3.1191 13.95L3.769 13.05L4.2238 12.41L3.8989 11.76C3.704 11.44 3.574 11.12 3.444 10.8L3.2491 10.03L2.4693 9.90002L1.2996 9.71002V8.41998L2.4043 8.22998L3.1841 8.09998L3.444 7.33002C3.574 7.01002 3.704 6.61999 3.8339 6.29999L4.2238 5.59003L3.769 4.95001L3.1191 3.98999L4.0289 3.09003L4.9386 3.72998L5.5884 4.17999L6.3032 3.85999C6.6282 3.65999 6.9531 3.53997 7.278 3.40997L8.0578 3.21002L8.1877 2.44L8.3827 1.28998H9.7473ZM9.8773 0H8.2527C7.7329 0 7.213 0.390024 7.148 0.900024L6.9531 2.19C6.4982 2.31 6.1083 2.51001 5.7184 2.70001L4.6787 1.98999C4.4838 1.85999 4.2888 1.79999 4.0289 1.79999C3.704 1.79999 3.444 1.93 3.2491 2.12L2.0794 3.21002C1.6895 3.60002 1.6245 4.18001 1.9495 4.63L2.7292 5.65997C2.5343 6.03997 2.3394 6.49001 2.2094 6.88L0.974701 7.07001C0.389901 7.26001 0 7.70998 0 8.22998V9.84003C0 10.35 0.389898 10.86 0.909698 10.93L2.2094 11.12C2.3394 11.57 2.5343 11.96 2.7292 12.34L1.9495 13.37C1.6245 13.82 1.6895 14.4 2.0794 14.79L3.2491 15.94C3.444 16.14 3.769 16.26 4.0289 16.26C4.2888 16.26 4.4838 16.1999 4.6787 16.0699L5.7184 15.3C6.1083 15.49 6.4982 15.69 6.8881 15.81L7.083 17.1C7.148 17.61 7.6679 18 8.1877 18H9.8123C10.3321 18 10.852 17.61 10.917 17.1L11.1119 15.81C11.5668 15.69 11.9567 15.49 12.3466 15.3L13.3863 16.0699C13.5812 16.1999 13.7762 16.26 14.0361 16.26C14.361 16.26 14.6209 16.14 14.8159 15.94L15.9206 14.85C16.3105 14.46 16.3755 13.89 16.0505 13.44L15.2708 12.41C15.4657 12.02 15.6606 11.57 15.7906 11.19L17.0903 10.99C17.6101 10.93 18 10.41 18 9.90002V8.28998C18 7.77998 17.6101 7.26001 17.0903 7.20001L15.7906 7.01001C15.6606 6.56001 15.4657 6.16998 15.2708 5.78998L16.2455 4.63C16.5704 4.18001 16.5054 3.60002 16.1155 3.21002L14.9458 2.06C14.7509 1.86 14.426 1.73999 14.1661 1.73999C13.9061 1.73999 13.7112 1.79999 13.5162 1.92999L12.4765 2.70001C12.0866 2.51001 11.6318 2.31 11.1769 2.19L10.9819 0.960022C10.852 0.390022 10.3971 0 9.8773 0Z" fill="#606580"/>
<path fill-rule="evenodd" clip-rule="evenodd" d="M9 6.59998C7.6745 6.59998 6.6 7.67 6.6 9C6.6 10.33 7.6745 11.4 9 11.4C10.3255 11.4 11.4 10.33 11.4 9C11.4 7.67 10.3255 6.59998 9 6.59998ZM5 9C5 6.79 6.7909 5 9 5C11.2091 5 13 6.79 13 9C13 11.21 11.2091 13 9 13C6.7909 13 5 11.21 5 9Z" fill="#606580"/>
</svg>
