<svg width="21" height="20" viewBox="0 0 21 20" fill="none" xmlns="http://www.w3.org/2000/svg">
<path fill-rule="evenodd" clip-rule="evenodd" d="M0.73291 0C1.10191 0 1.3999 0.299983 1.3999 0.669983V18.67H19.3999C19.7679 18.67 20.0669 18.97 20.0669 19.33C20.0669 19.7 19.7679 20 19.3999 20H0.73291C0.36491 20 0.0668945 19.7 0.0668945 19.33V0.669983C0.0668945 0.299983 0.36491 0 0.73291 0Z" fill="#0089FF"/>
<path fill-rule="evenodd" clip-rule="evenodd" d="M0.467041 9.59991C0.467041 9.22991 0.765026 8.92993 1.13303 8.92993H2.73303C3.10203 8.92993 3.40002 9.22991 3.40002 9.59991C3.40002 9.96991 3.10203 10.27 2.73303 10.27H1.13303C0.765026 10.27 0.467041 9.96991 0.467041 9.59991Z" fill="#0089FF"/>
<path fill-rule="evenodd" clip-rule="evenodd" d="M0.467041 4.32996C0.467041 3.96996 0.765026 3.66992 1.13303 3.66992H2.73303C3.10203 3.66992 3.40002 3.96996 3.40002 4.32996C3.40002 4.69996 3.10203 4.99994 2.73303 4.99994H1.13303C0.765026 4.99994 0.467041 4.69996 0.467041 4.32996Z" fill="#0089FF"/>
<path fill-rule="evenodd" clip-rule="evenodd" d="M0.467041 14.8699C0.467041 14.4999 0.765026 14.2 1.13303 14.2H2.73303C3.10203 14.2 3.40002 14.4999 3.40002 14.8699C3.40002 15.2299 3.10203 15.53 2.73303 15.53H1.13303C0.765026 15.53 0.467041 15.2299 0.467041 14.8699Z" fill="#0089FF"/>
<path d="M18.1999 4.07001C18.5999 4.07001 18.9999 4.4 18.9999 4.87C18.9999 5.33 18.6669 5.66998 18.1999 5.66998C17.7999 5.66998 17.3999 5.33 17.3999 4.87C17.3999 4.4 17.7999 4.07001 18.1999 4.07001ZM18.1999 2.72998C16.9999 2.72998 16.0669 3.67 16.0669 4.87C16.0669 6.07 16.9999 7 18.1999 7C19.3999 7 20.3329 6.07 20.3329 4.87C20.3329 3.67 19.3999 2.72998 18.1999 2.72998Z" fill="#0089FF"/>
<path d="M14.7331 9.46985C15.1331 9.46985 15.5331 9.7999 15.5331 10.2699C15.5331 10.6699 15.2001 11.0699 14.7331 11.0699C14.2671 11.0699 13.9331 10.7299 13.9331 10.2699C13.9331 9.8699 14.3331 9.46985 14.7331 9.46985ZM14.7331 8.12988C13.5331 8.12988 12.6001 9.0699 12.6001 10.2699C12.6001 11.4699 13.5331 12.3999 14.7331 12.3999C15.9331 12.3999 16.8671 11.4699 16.8671 10.2699C16.8671 9.0699 15.9331 8.12988 14.7331 8.12988Z" fill="#0089FF"/>
<path d="M11.1999 5.79999C11.5999 5.79999 11.9999 6.12998 11.9999 6.59998C11.9999 7.06998 11.5999 7.33002 11.1999 7.33002C10.7999 7.33002 10.3999 7.00003 10.3999 6.53003C10.3999 6.07003 10.7329 5.79999 11.1999 5.79999ZM11.1999 4.46997C9.99992 4.46997 9.06689 5.39998 9.06689 6.59998C9.06689 7.79998 9.99992 8.72998 11.1999 8.72998C12.3999 8.72998 13.3329 7.79998 13.3329 6.59998C13.3329 5.39998 12.3329 4.46997 11.1999 4.46997Z" fill="#0089FF"/>
<path d="M7.26706 10.87C7.66706 10.87 8.06705 11.2 8.06705 11.67C8.06705 12.13 7.73306 12.47 7.26706 12.47C6.80006 12.47 6.46707 12.13 6.46707 11.67C6.46707 11.2 6.80006 10.87 7.26706 10.87ZM7.26706 9.53003C6.06706 9.53003 5.13306 10.47 5.13306 11.67C5.13306 12.87 6.06706 13.8 7.26706 13.8C8.46706 13.8 9.40005 12.87 9.40005 11.67C9.40005 10.47 8.40006 9.53003 7.26706 9.53003Z" fill="#0089FF"/>
<path fill-rule="evenodd" clip-rule="evenodd" d="M14.7891 8.95001L17.0561 5.75L18.1441 6.52002L15.8771 9.71997L14.7891 8.95001Z" fill="#0089FF"/>
<path fill-rule="evenodd" clip-rule="evenodd" d="M13.471 9.80994L11.738 8.14996L12.662 7.18994L14.396 8.84991L13.471 9.80994Z" fill="#0089FF"/>
<path fill-rule="evenodd" clip-rule="evenodd" d="M7.49316 9.96997L9.82614 7.22998L10.8412 8.09998L8.50714 10.83L7.49316 9.96997Z" fill="#0089FF"/>
</svg>
