<svg width="16" height="17" viewBox="0 0 16 17" fill="none" xmlns="http://www.w3.org/2000/svg">
<path fill-rule="evenodd" clip-rule="evenodd" d="M16 8.83571C16 6.62577 15.1043 4.62559 13.6571 3.17788C12.2092 1.73018 10.209 0.834961 7.99933 0.834961C5.79031 0.834961 3.79014 1.73018 2.3429 3.17788C0.894988 4.62559 0 6.62577 0 8.83571C0 11.0443 0.894988 13.0445 2.3429 14.4922C3.79014 15.9399 5.79031 16.8351 7.99933 16.8351C10.209 16.8351 12.2092 15.9399 13.6571 14.4922C15.1043 13.0445 16 11.0443 16 8.83571ZM8.51611 8.62182L11.0866 11.1923C11.2881 11.3938 11.2881 11.7201 11.0866 11.9217C10.8851 12.1232 10.5571 12.1232 10.3556 11.9217L7.6412 9.20585C7.54414 9.11262 7.48389 8.98102 7.48389 8.83569V4.0717C7.48389 3.78655 7.7155 3.55624 7.99933 3.55624C8.2845 3.55624 8.51611 3.78655 8.51611 4.0717V8.62182ZM14.9678 8.83578C14.9678 10.7592 14.1873 12.5016 12.9275 13.7629C11.6663 15.0242 9.92386 15.8029 7.99933 15.8029C6.07548 15.8029 4.33303 15.0242 3.07188 13.7629C1.81073 12.5016 1.03221 10.7592 1.03221 8.83578C1.03221 6.91098 1.81073 5.16853 3.07188 3.90728C4.33303 2.6474 6.07548 1.86734 7.99933 1.86734C9.92386 1.86734 11.6663 2.6474 12.9275 3.90728C14.1873 5.16853 14.9678 6.91098 14.9678 8.83578Z" fill="#606580"/>
</svg>
