<svg width="21" height="20" viewBox="0 0 21 20" fill="none" xmlns="http://www.w3.org/2000/svg">
<path fill-rule="evenodd" clip-rule="evenodd" d="M0.732849 0C1.10185 0 1.3999 0.297992 1.3999 0.666992V18.667H19.3999C19.7679 18.667 20.0669 18.965 20.0669 19.333C20.0669 19.702 19.7679 20 19.3999 20H0.732849C0.364849 20 0.0668945 19.702 0.0668945 19.333V0.666992C0.0668945 0.297992 0.364849 0 0.732849 0Z" fill="#606580"/>
<path fill-rule="evenodd" clip-rule="evenodd" d="M0.467041 9.6001C0.467041 9.2321 0.765057 8.93311 1.13306 8.93311H2.73303C3.10203 8.93311 3.40009 9.2321 3.40009 9.6001C3.40009 9.9681 3.10203 10.2672 2.73303 10.2672H1.13306C0.765057 10.2672 0.467041 9.9681 0.467041 9.6001Z" fill="#606580"/>
<path fill-rule="evenodd" clip-rule="evenodd" d="M0.467041 4.33301C0.467041 3.96501 0.765057 3.66699 1.13306 3.66699H2.73303C3.10203 3.66699 3.40009 3.96501 3.40009 4.33301C3.40009 4.70201 3.10203 5 2.73303 5H1.13306C0.765057 5 0.467041 4.70201 0.467041 4.33301Z" fill="#606580"/>
<path fill-rule="evenodd" clip-rule="evenodd" d="M0.467041 14.8669C0.467041 14.4979 0.765057 14.2 1.13306 14.2H2.73303C3.10203 14.2 3.40009 14.4979 3.40009 14.8669C3.40009 15.2349 3.10203 15.533 2.73303 15.533H1.13306C0.765057 15.533 0.467041 15.2349 0.467041 14.8669Z" fill="#606580"/>
<path d="M18.1999 4.06696C18.5999 4.06696 18.9999 4.39994 18.9999 4.86694C18.9999 5.33294 18.6669 5.66693 18.1999 5.66693C17.7999 5.66693 17.3999 5.33294 17.3999 4.86694C17.3999 4.39994 17.7999 4.06696 18.1999 4.06696ZM18.1999 2.73291C16.9999 2.73291 16.0669 3.66694 16.0669 4.86694C16.0669 6.06694 16.9999 6.99994 18.1999 6.99994C19.3999 6.99994 20.3329 6.06694 20.3329 4.86694C20.3329 3.66694 19.3999 2.73291 18.1999 2.73291Z" fill="#606580"/>
<path d="M14.7331 9.46704C15.1331 9.46704 15.5331 9.80009 15.5331 10.2671C15.5331 10.6671 15.2001 11.0671 14.7331 11.0671C14.2671 11.0671 13.9331 10.7331 13.9331 10.2671C13.9331 9.86709 14.3331 9.46704 14.7331 9.46704ZM14.7331 8.13306C13.5331 8.13306 12.6001 9.06709 12.6001 10.2671C12.6001 11.4671 13.5331 12.4001 14.7331 12.4001C15.9331 12.4001 16.8671 11.4671 16.8671 10.2671C16.8671 9.06709 15.9331 8.13306 14.7331 8.13306Z" fill="#606580"/>
<path d="M11.1999 5.80005C11.5999 5.80005 11.9999 6.13304 11.9999 6.60004C11.9999 7.06704 11.5999 7.33307 11.1999 7.33307C10.7999 7.33307 10.3999 7.00008 10.3999 6.53308C10.3999 6.06708 10.7329 5.80005 11.1999 5.80005ZM11.1999 4.46704C9.99989 4.46704 9.06689 5.40004 9.06689 6.60004C9.06689 7.80004 9.99989 8.73303 11.1999 8.73303C12.3999 8.73303 13.3329 7.80004 13.3329 6.60004C13.3329 5.40004 12.3329 4.46704 11.1999 4.46704Z" fill="#606580"/>
<path d="M7.26709 10.8669C7.66709 10.8669 8.06708 11.1999 8.06708 11.6669C8.06708 12.1339 7.73309 12.4669 7.26709 12.4669C6.80009 12.4669 6.46704 12.1339 6.46704 11.6669C6.46704 11.1999 6.80009 10.8669 7.26709 10.8669ZM7.26709 9.53394C6.06709 9.53394 5.13306 10.4669 5.13306 11.6669C5.13306 12.8669 6.06709 13.7999 7.26709 13.7999C8.46709 13.7999 9.40009 12.8669 9.40009 11.6669C9.40009 10.4669 8.40009 9.53394 7.26709 9.53394Z" fill="#606580"/>
<path fill-rule="evenodd" clip-rule="evenodd" d="M14.7891 8.94806L17.0561 5.74805L18.144 6.51904L15.8771 9.71906L14.7891 8.94806Z" fill="#606580"/>
<path fill-rule="evenodd" clip-rule="evenodd" d="M13.4711 9.81409L11.738 8.14703L12.662 7.18604L14.3961 8.85309L13.4711 9.81409Z" fill="#606580"/>
<path fill-rule="evenodd" clip-rule="evenodd" d="M7.49292 9.96686L9.82697 7.23389L10.8409 8.09985L8.50696 10.8329L7.49292 9.96686Z" fill="#606580"/>
</svg>
