<svg width="16" height="16" viewBox="0 0 16 16" fill="none" xmlns="http://www.w3.org/2000/svg">
<path fill-rule="evenodd" clip-rule="evenodd" d="M6.12988 1.9411L6.3208 0.819104C6.40088 0.341107 6.81201 -0.00689994 7.29688 0.000103847H8.7041C9.18896 0.000103847 9.6001 0.347104 9.68018 0.825101L9.86719 1.94911C10.2422 2.0621 10.606 2.21611 10.957 2.4001L11.8862 1.73811C12.2808 1.4571 12.8188 1.5041 13.1602 1.84511L14.1558 2.84111C14.3428 3.0281 14.4468 3.2761 14.4468 3.53911C14.4468 3.7471 14.3828 3.94711 14.2632 4.1141L13.6011 5.0401C13.7852 5.3871 13.9351 5.7521 14.0518 6.13011L15.1748 6.32011C15.6528 6.4001 16.001 6.8121 16.001 7.29611V8.7071C16.001 9.1911 15.6528 9.6031 15.1748 9.6831L14.0518 9.8701C13.939 10.2341 13.7949 10.5891 13.6182 10.9261L14.2861 11.8651C14.4072 12.0321 14.4702 12.2301 14.4702 12.4371C14.4702 12.7011 14.3662 12.9481 14.1792 13.1351L13.1831 14.1321C12.8418 14.4761 12.3042 14.5191 11.9092 14.2391L10.9941 13.5801C10.646 13.7671 10.2822 13.9211 9.9082 14.0381L9.71387 15.1741C9.63281 15.6521 9.22217 16.0001 8.73779 16.0001H7.33008C6.84521 16.0001 6.43506 15.6521 6.354 15.1741L6.16699 14.0651C5.78906 13.9511 5.4248 13.8041 5.07422 13.6201L4.13477 14.2891C3.73975 14.5691 3.20215 14.5221 2.86084 14.1811L1.86475 13.1821C1.67822 12.9981 1.57422 12.7471 1.57422 12.4841C1.57422 12.2771 1.63818 12.0761 1.75781 11.9091L2.41992 10.9891C2.23291 10.6421 2.0791 10.2781 1.96191 9.9031L0.826172 9.7091C0.348145 9.6291 0 9.21811 0 8.73311V7.32611C0 6.8421 0.348145 6.4301 0.826172 6.35011L1.93506 6.1631C2.05176 5.77211 2.20898 5.3941 2.3999 5.03311L1.73779 4.10411C1.61816 3.9371 1.5542 3.74011 1.5542 3.53311C1.5542 3.2691 1.6582 3.0211 1.84521 2.8341L2.84082 1.8381C3.18213 1.49411 3.72021 1.4501 4.11475 1.73111L5.04102 2.39311C5.38818 2.2091 5.75293 2.05911 6.12988 1.9411ZM8.7041 0.8961V0.892102H7.29688C7.25293 0.892102 7.2168 0.922101 7.20996 0.966107L6.97314 2.3701C6.9458 2.54411 6.81494 2.6871 6.64209 2.73111C6.1499 2.85811 5.6792 3.0511 5.24121 3.3121C5.08691 3.4021 4.89307 3.3961 4.75 3.29211L3.58984 2.46611C3.55322 2.4431 3.50586 2.4461 3.47607 2.4761L2.47998 3.4721C2.45703 3.49611 2.45312 3.5231 2.45312 3.5361C2.45312 3.5531 2.45996 3.57011 2.47021 3.5861L3.29883 4.7391C3.40283 4.88611 3.41016 5.0771 3.31885 5.2301C3.05518 5.6791 2.85791 6.16011 2.73096 6.66411C2.68701 6.8381 2.54395 6.9691 2.36719 6.9991L0.973145 7.23311C0.929199 7.2391 0.898926 7.2761 0.898926 7.32011V8.72711C0.898926 8.77011 0.929199 8.80711 0.973145 8.8141L2.38721 9.0541C2.56104 9.0841 2.70117 9.2151 2.74805 9.3851C2.875 9.87611 3.0752 10.3481 3.33594 10.7831C3.42578 10.9361 3.41992 11.1301 3.31592 11.2771L2.49414 12.4301C2.48291 12.4441 2.47705 12.4601 2.47705 12.4801C2.47705 12.4971 2.47998 12.5201 2.50391 12.5441L3.5 13.5401C3.52979 13.5701 3.58008 13.5731 3.61279 13.5501L4.7832 12.7171C4.92676 12.6141 5.11719 12.6041 5.271 12.6941C5.70898 12.9511 6.18408 13.1421 6.6748 13.2661C6.84912 13.3091 6.979 13.4531 7.00879 13.6301L7.24316 15.0241C7.25 15.0671 7.28711 15.0971 7.33008 15.0971H8.73779C8.78076 15.0971 8.81787 15.0671 8.82422 15.0241L9.06494 13.6101C9.09521 13.4361 9.2251 13.2961 9.396 13.2491C9.88721 13.1221 10.3589 12.9211 10.793 12.6611C10.9468 12.5711 11.1411 12.5771 11.2881 12.6811L12.4409 13.5031C12.478 13.5271 12.5249 13.5231 12.5552 13.4931L13.5508 12.4971C13.5742 12.4741 13.5781 12.4471 13.5781 12.4341C13.5781 12.4171 13.5708 12.4001 13.561 12.3831L12.729 11.2141C12.6719 11.1371 12.645 11.0431 12.645 10.9531C12.645 10.8761 12.665 10.7961 12.7051 10.7261C12.9531 10.2941 13.1431 9.83311 13.2671 9.3551C13.3101 9.1851 13.4512 9.0541 13.6279 9.02411L15.0322 8.7901C15.0752 8.7841 15.105 8.7471 15.105 8.70311V7.29611C15.105 7.25311 15.0752 7.21611 15.0322 7.21011L13.6279 6.9721C13.4541 6.94511 13.3101 6.81511 13.2671 6.64111C13.1401 6.1501 12.9458 5.6791 12.6851 5.2411C12.5952 5.08711 12.6021 4.89311 12.7051 4.7491L13.5308 3.5901C13.541 3.57611 13.5479 3.55911 13.5479 3.53911C13.5479 3.5231 13.5439 3.4991 13.521 3.4761L12.5249 2.4801C12.4951 2.4501 12.4438 2.4461 12.4111 2.47011L11.248 3.29611C11.1011 3.39911 10.9102 3.4051 10.7568 3.31511C10.3188 3.0551 9.84717 2.86111 9.35596 2.7341C9.18604 2.69011 9.05518 2.55011 9.0249 2.37311L8.79102 0.969098C8.78418 0.926099 8.74805 0.8961 8.7041 0.8961Z" fill="#0089FF"/>
<path fill-rule="evenodd" clip-rule="evenodd" d="M7.99915 11.4521C6.0929 11.4521 4.54602 9.90512 4.54602 8.00012C4.54602 6.09412 6.0929 4.54712 7.99915 4.54712C9.90393 4.54712 11.4523 6.09412 11.4523 8.00012C11.4523 9.90512 9.90393 11.4521 7.99915 11.4521ZM7.99915 10.5501C9.40588 10.5501 10.549 9.40712 10.549 8.00012C10.549 6.59212 9.40588 5.44913 7.99915 5.44913C6.59192 5.44913 5.44788 6.59212 5.44788 8.00012C5.44788 9.40712 6.59192 10.5501 7.99915 10.5501Z" fill="#0089FF"/>
</svg>
